<?xml version="1.0" encoding="utf-8"?>
<!-- Generator: Adobe Illustrator 15.0.0, SVG Export Plug-In . SVG Version: 6.00 Build 0)  -->
<!DOCTYPE svg PUBLIC "-//W3C//DTD SVG 1.1//EN" "http://www.w3.org/Graphics/SVG/1.1/DTD/svg11.dtd">
<svg version="1.1" id="Layer_1" xmlns="http://www.w3.org/2000/svg" xmlns:xlink="http://www.w3.org/1999/xlink" x="0px" y="0px"
	 width="115px" height="65px" viewBox="0 0 115 65" enable-background="new 0 0 115 65" xml:space="preserve">
<g>
	<g>
		<path fill="#282828" d="M114.188,34.913c-0.555-0.503-1.411-0.46-1.913,0.094c-1.549,1.708-3.041,3.308-4.459,4.802
			c1.242-3.348,2.688-7.152,4.285-10.968c0.289-0.69-0.037-1.484-0.727-1.772c-0.692-0.29-1.484,0.037-1.771,0.726
			c-0.255,0.609-0.506,1.217-0.752,1.822c-0.001,0.001-0.002,0.002-0.002,0.003c-4.232,9.379-10.262,12.899-10.285,12.913
			c-0.343,0.146-0.505,0.142-0.512,0.15c-0.04-0.044-0.348-0.44-0.35-1.952c-0.008-4.768,5.039-12.076,5.09-12.149
			c0.428-0.614,0.275-1.458-0.338-1.885s-1.457-0.276-1.885,0.337c-0.162,0.231-2.886,4.184-4.465,8.465
			c-0.065,0.057-0.142,0.098-0.197,0.169c-2.874,3.674-6.264,7.007-7.216,7.131c-0.3-0.017-0.499-0.082-0.592-0.194
			c-0.083-0.101-0.342-0.54-0.153-1.963c0.097-0.729,0.216-1.467,0.354-2.213c1.483-1.693,3.008-3.62,4.477-5.666
			c1.787-0.474,2.918-0.997,2.979-1.026c0.677-0.318,0.968-1.125,0.649-1.802c-0.225-0.479-0.695-0.76-1.191-0.772
			c3.167-4.956,5.745-10.222,6.525-14.456c0.414-2.246-0.591-3.483-1.668-3.893c-1.894-0.721-4.27,0.712-6.051,3.652
			c-0.98,1.619-4.218,8.449-6.545,16.098c-0.582-0.066-0.972-0.15-0.98-0.152c-0.73-0.166-1.455,0.284-1.625,1.012
			c-0.17,0.729,0.283,1.457,1.012,1.627c0.035,0.008,0.347,0.078,0.837,0.149c-0.352,1.317-0.669,2.644-0.933,3.959
			c-1.718,1.928-3.337,3.479-4.667,4.437c-0.052,0.03-0.111,0.042-0.16,0.08c-1.331,1.042-1.865,0.998-1.867,1.01
			c-0.022-0.023-0.351-0.395-0.353-1.955c-0.008-4.774,4.586-11.583,4.633-11.651c0.42-0.618,0.26-1.461-0.357-1.881
			c-0.619-0.422-1.461-0.262-1.882,0.357c-0.146,0.216-2.624,3.894-4.071,8.012c-0.092,0.093-0.186,0.185-0.25,0.307
			c-0.024,0.047-2.478,4.646-7.361,6.521c-0.07,0.027-0.203,0.077-0.424-0.107c-0.388-0.325-0.693-1.107-0.526-1.975
			c0.157-0.817,0.337-1.646,0.533-2.478c6.104-6.269,12.428-15.987,13.743-23.127c0.342-1.854-0.395-3.387-1.877-3.904
			c-1.725-0.601-4.445,0.368-6.341,3.926c-1.151,2.16-5.622,12.284-7.972,21.708c-1.938,1.946-3.811,3.475-5.41,4.331
			c-0.026,0.014-0.041,0.039-0.065,0.055c-2.788,1.612-4.807,2.342-5.993,2.153c-0.062-0.01-0.191-0.03-0.356-0.31
			c-0.073-0.124-0.137-0.27-0.191-0.432c1.35-0.848,2.993-1.936,4.581-3.127c1.73-1.301,4.753-4.225,5.102-6.936
			c0.236-1.836-0.223-3.328-1.291-4.2c-1.06-0.864-2.587-1.016-4.301-0.428c-1.467,0.503-4.446,3.096-6.196,7.911
			c-0.579,1.595-0.928,3.601-0.843,5.407c-0.479,0.286-0.839,0.495-1.076,0.631c-1.897,0.709-3.926,1.369-4.519,1.411
			c-0.583-0.134-1.184-0.388-0.666-2.894c0.11-0.531,0.242-1.104,0.395-1.715c1.269-1.422,2.317-2.713,2.932-3.492
			c5.625-7.125,9.551-14.461,10.502-19.625c0.352-1.911-0.539-3.513-2.216-3.987c-2-0.567-4.726,0.681-6.07,4.157
			c-0.066,0.173-0.183,0.466-0.34,0.862c-1.87,4.711-3.429,8.871-4.673,12.458c-0.094-0.108-0.193-0.213-0.297-0.314
			c-1.157-1.119-2.813-1.6-4.656-1.355c-2.937,0.39-6.058,4.428-7.195,7.368c-0.001,0.003-0.003,0.005-0.004,0.008
			c-0.294,0.895-1.211,2.144-2.378,3.684c-2.367,3.123-4.989,4.842-5.684,4.609c-0.091-0.029-0.458-0.508-0.46-2.145
			c-0.008-5.439,4.684-11.241,4.732-11.3c0.473-0.579,0.388-1.432-0.19-1.905c-0.31-0.253-0.695-0.336-1.062-0.279
			c-0.424-0.009-0.847,0.157-1.119,0.522c-0.031,0.042-3.171,4.182-8.858,4.693c-0.496,0.045-0.967,0.066-1.427,0.079
			c1.616-3.506,3.239-7.935,4.793-13.528c0.959-3.451,2.303-6.233,3.983-8.281c1.394,0.439,2.641,0.92,3.64,1.367
			c8.18,3.659,11.081,0.947,11.948-0.389c1.168-1.799,0.824-4.337-0.784-5.779c-1.57-1.407-5.766-2.81-10.178-1.52
			c-1.678,0.491-3.622,1.446-5.49,3.259C20.88,6.294,14.9,5.447,10.165,7.676c-3.292,1.549-5.514,4.328-6.604,8.258
			c-0.2,0.721,0.222,1.468,0.943,1.667c0.722,0.199,1.467-0.223,1.667-0.943c0.882-3.18,2.565-5.316,5.147-6.531
			c3.401-1.601,7.946-1.289,11.927-0.374c-1.453,2.031-2.772,4.734-3.769,8.325c-1.696,6.102-3.443,10.686-5.117,14.129
			c-3.092-0.361-4.826-1.323-4.878-1.353c-0.642-0.379-1.47-0.165-1.851,0.477c-0.382,0.643-0.17,1.474,0.473,1.856
			c0.107,0.063,1.833,1.062,4.915,1.572c-2.647,4.646-5.011,6.541-6.556,7.309c-1.94,0.965-3.159,0.502-3.18,0.495
			c-0.679-0.31-1.484-0.01-1.794,0.671c-0.31,0.682-0.009,1.484,0.672,1.795c0.127,0.058,0.843,0.357,1.979,0.357
			c0.877,0,2.004-0.178,3.305-0.785c2.363-1.102,5.382-3.713,8.504-9.562c0.244,0.008,0.488,0.016,0.742,0.016
			c0.717,0,1.474-0.031,2.271-0.104c2.029-0.183,3.772-0.739,5.24-1.435c-0.943,2.1-1.698,4.546-1.694,7.009
			c0.003,2.612,0.78,4.197,2.308,4.709c0.308,0.104,0.625,0.15,0.947,0.15c2.412,0,5.133-2.64,6.641-4.343
			c0.022,1.036,0.213,1.992,0.689,2.761c0.568,0.916,1.469,1.495,2.604,1.676c1.796,0.285,4.363-1.531,6.781-3.796
			c0.049,2.149,1.073,3.454,3.061,3.887c0.077,0.017,0.189,0.041,0.387,0.041c0.583,0,1.915-0.215,5.245-1.456
			c0.134-0.026,0.269-0.056,0.395-0.125c0.014-0.008,0.061-0.034,0.122-0.068c0.186-0.071,0.384-0.148,0.582-0.226
			c0.051,0.105,0.104,0.209,0.162,0.309c0.534,0.903,1.319,1.46,2.27,1.608c0.257,0.04,0.523,0.061,0.801,0.061
			c1.979,0,4.535-1.025,8.119-3.233c0.038-0.023,0.06-0.062,0.095-0.088c0.655-0.434,1.332-0.934,2.03-1.507
			c0.021,1.375,0.577,2.67,1.542,3.478c0.605,0.508,1.31,0.769,2.028,0.769c0.368,0,0.74-0.068,1.105-0.209
			c2.359-0.904,4.221-2.316,5.619-3.691c0.036,1.111,0.271,3.113,1.851,3.882c0.377,0.183,0.778,0.274,1.204,0.274
			c0.85,0,1.81-0.386,2.883-1.117c0.016-0.009,0.033-0.009,0.049-0.019c0.934-0.589,2.001-1.458,3.146-2.545
			c0.025,1.111,0.303,1.978,0.84,2.625c0.594,0.717,1.443,1.11,2.526,1.171c0.036,0.003,0.072,0.004,0.108,0.004
			c1.709-0.001,4.177-2.19,6.353-4.562c0.036,2.019,0.545,3.334,1.561,4.002c0.345,0.229,0.839,0.435,1.49,0.435
			c0.45,0,0.976-0.099,1.579-0.358c0.55-0.235,2.494-1.503,4.835-3.964c-0.062,0.169-0.128,0.347-0.189,0.513
			c-0.405,1.099-0.784,2.128-1.14,3.078c-0.68,0.691-1.33,1.353-1.95,1.982c-6.909,7.01-10.376,10.529-9.911,13.863
			c0.291,2.092,1.506,3.54,3.168,3.779c0.156,0.023,0.314,0.034,0.472,0.034c1.792,0,3.511-1.468,4.667-4.025
			c0.475-1.048,2.697-6.091,4.908-11.606c0.305-0.761,0.631-1.609,0.982-2.54c2.592-2.647,5.572-5.741,8.809-9.31
			C114.785,36.272,114.742,35.416,114.188,34.913z M96.34,15.87c1.201-1.983,2.35-2.529,2.713-2.529c0.007,0,0.014,0,0.02,0
			c0.041,0.101,0.096,0.379,0.004,0.875c-0.842,4.563-4.178,10.732-7.971,16.159c-0.218,0.046-0.437,0.093-0.67,0.135
			c-0.037,0.007-0.073,0.008-0.11,0.015C92.574,23.411,95.552,17.169,96.34,15.87z M76.95,16.002
			c1.048-1.967,2.308-2.667,2.89-2.667c0.064,0,0.121,0.009,0.167,0.025c0.142,0.05,0.188,0.418,0.106,0.856
			c-0.932,5.059-4.931,11.947-9.385,17.54C73.201,23.943,76.41,17.017,76.95,16.002z M53.083,17.208
			c0.162-0.407,0.281-0.708,0.349-0.884c0.706-1.826,1.861-2.558,2.573-2.558c0.084,0,0.162,0.01,0.232,0.03
			c0.286,0.081,0.383,0.38,0.29,0.89c-0.976,5.296-4.733,11.647-8.792,16.972C49.057,27.682,50.843,22.854,53.083,17.208z
			 M31.455,6.802c3.455-1.011,6.711,0.131,7.61,0.938c0.551,0.494,0.811,1.53,0.32,2.287c-0.748,1.152-3.441,1.685-8.569-0.609
			c-0.312-0.139-1.232-0.538-2.559-1.006C29.244,7.675,30.312,7.136,31.455,6.802z M43.303,36.964
			c-3.281,3.573-6.138,5.892-7.182,5.839c-0.451-0.072-0.62-0.257-0.727-0.428c-0.406-0.655-0.608-2.338,0.734-6.637
			c0.819-2.617,3.57-5.844,5.166-6.056c0.2-0.026,0.393-0.04,0.578-0.04c0.762,0,1.39,0.223,1.839,0.657
			c0.588,0.568,0.862,1.485,0.779,2.591C44.021,34.383,43.625,35.742,43.303,36.964z M55.013,36.379
			c1.599-4.401,4.102-6.118,4.527-6.272c0.405-0.139,0.772-0.209,1.075-0.209c0.273,0,0.494,0.058,0.635,0.174
			c0.309,0.25,0.426,0.906,0.317,1.754c-0.183,1.422-2.241,3.762-4.042,5.116c-1.046,0.785-2.13,1.53-3.132,2.187
			C54.493,38.201,54.701,37.236,55.013,36.379z M97.114,59.166c-0.926,2.047-1.899,2.48-2.285,2.427
			c-0.399-0.058-0.759-0.664-0.871-1.474c-0.234-1.682,2.497-4.768,6.604-8.986C98.908,55.122,97.481,58.354,97.114,59.166z
			 M29.272,23.105v1.862c0,0.748,0.606,1.354,1.354,1.354s1.354-0.606,1.354-1.354v-1.862c0-0.748-0.606-1.354-1.354-1.354
			S29.272,22.357,29.272,23.105z M82.564,24.876c0,0.748,0.605,1.354,1.354,1.354s1.355-0.606,1.355-1.354v-1.862
			c0-0.748-0.607-1.354-1.355-1.354s-1.354,0.606-1.354,1.354V24.876z"/>
	</g>
</g>
</svg>
